<svg xmlns="http://www.w3.org/2000/svg" viewBox="0 0 24 24">
	<path fill="#4285f4" d="M22.56 12.25c0-.78-.07-1.53-.2-2.25H12v4.26h5.92c-.26 1.37-1.04 2.53-2.21 3.31v2.77h3.57c2.08-1.92 3.28-4.74 3.28-8.09z" />
	<path fill="#34a853" d="M12 23c2.97 0 5.46-.98 7.28-2.66l-3.57-2.77c-.98.66-2.23 1.06-3.71 1.06-2.86 0-5.29-1.93-6.16-4.53H2.15v2.84C3.96 20.53 7.68 23 12 23z" />
	<path fill="#fbbc05" d="M5.84 14.1c-.22-.66-.35-1.36-.35-2.1s.13-1.44.35-2.1V7.06H2.15A11 11 0 0 0 1 12c0 1.77.42 3.45 1.15 4.94z" />
	<path fill="#ea4335" d="M12 5.38c1.62 0 3.06.56 4.21 1.64l3.15-3.15C17.45 2.09 14.97 1 12 1 7.68 1 3.96 3.47 2.15 7.06L5.84 9.9c.87-2.6 3.3-4.52 6.16-4.52z" />
</svg>
