<svg xmlns="http://www.w3.org/2000/svg" viewBox="0 0 24 24">
	<title>instagram</title>
	<path fill="currentColor" fill-rule="evenodd" clip-rule="evenodd" d="M12 18a6 6 0 1 0 0-12 6 6 0 0 0 0 12Zm0-2a4 4 0 1 0 0-8 4 4 0 0 0 0 8Z" />
	<path fill="currentColor" d="M18 5a1 1 0 1 0 0 2 1 1 0 0 0 0-2Z" />
	<path fill="currentColor" fill-rule="evenodd" clip-rule="evenodd" d="M1.654 4.276C1 5.56 1 7.24 1 10.6v2.8c0 3.36 0 5.44.654 6.724a5 5 0 0 0 2.622 2.622C5.56 23 7.24 23 10.6 23h2.8c3.36 0 5.44 0 6.724-.654a5 5 0 0 0 2.622-2.622C23 18.44 23 16.76 23 13.4v-2.8c0-3.36 0-5.44-.654-6.724a5 5 0 0 0-2.622-2.622C18.44 1 16.76 1 13.4 1h-2.8C7.24 1 5.56 1 4.276 1.654a5 5 0 0 0-2.622 2.622ZM13.4 3h-2.8c-1.713 0-2.878.002-3.778.075-.877.072-1.325.202-1.638.436a3 3 0 0 0-1.748 1.673c-.159.313-.289.761-.361 1.638C3.002 7.722 3 8.887 3 10.6v2.8c0 1.713.002 2.878.075 3.778.072.877.202 1.325.436 1.638a3 3 0 0 0 1.673 1.748c.313.159.761.289 1.638.361.9.073 2.065.075 3.778.075h2.8c1.713 0 2.878-.002 3.778-.075.877-.072 1.325-.202 1.638-.436a3 3 0 0 0 1.748-1.673c.159-.313.289-.761.361-1.638.073-.9.075-2.065.075-3.778v-2.8c0-1.713-.002-2.878-.075-3.778-.072-.877-.202-1.325-.436-1.638a3 3 0 0 0-1.673-1.748c-.313-.159-.761-.289-1.638-.361C16.278 3.002 15.113 3 13.4 3Z" />
</svg>
