<svg xmlns="http://www.w3.org/2000/svg" viewBox="0 0 24 24">
	<path fill="#25f4ee" d="M10.62 9.87v-.96a6.42 6.42 0 0 0-.92-.07 6.5 6.5 0 0 0-6.49 6.49 6.46 6.46 0 0 0 2.76 5.31 6.45 6.45 0 0 1-1.31-3.9 6.49 6.49 0 0 1 5.96-6.47z" />
	<path fill="#25f4ee" d="M10.77 19.18a2.96 2.96 0 0 0 2.95-2.82V2h2.57a4.84 4.84 0 0 1-.08-.85h-3.94v14.35a2.96 2.96 0 0 1-4.52 2.38 2.95 2.95 0 0 0 3.02 1.3zM21.08 6.77v-.9a4.82 4.82 0 0 1-2.65-.8 4.88 4.88 0 0 0 2.65 1.7z" />
	<path fill="#fe2c55" d="M18.43 5.07a4.86 4.86 0 0 1-1.2-3.22h-.94a4.88 4.88 0 0 0 2.14 3.22zM9.7 12.78a2.96 2.96 0 0 0-1.95 5.1 2.96 2.96 0 0 1 3.02-4.61c.31 0 .61.05.9.14V9.94a6.55 6.55 0 0 0-.9-.07h-.15v3.05a2.96 2.96 0 0 0-.92-.14z" />
	<path fill="#fe2c55" d="M21.08 6.77v3.06a8.39 8.39 0 0 1-4.9-1.57v7.18a6.49 6.49 0 0 1-10.21 5.2 6.5 6.5 0 0 0 11.66-3.91V9.56a8.4 8.4 0 0 0 4.9 1.57V6.88a4.93 4.93 0 0 1-1.45-.11z" />
	<path fill="#fff" d="M16.18 15.44V8.26a8.39 8.39 0 0 0 4.9 1.57V6.77a4.88 4.88 0 0 1-2.65-1.7 4.88 4.88 0 0 1-2.14-3.22h-2.57v14.51a2.96 2.96 0 0 1-5.97 1.52 2.96 2.96 0 0 1 2.87-4.96V9.87a6.49 6.49 0 0 0-5.96 6.47 6.45 6.45 0 0 0 1.31 3.9 6.49 6.49 0 0 0 10.21-4.8z" />
</svg>
