<svg xmlns="http://www.w3.org/2000/svg" viewBox="0 0 32 32">
	<title>tiktok</title>
	<path fill="currentColor" d="M16.656 1.029c1.637-.025 3.262-.012 4.886-.025.054 2.031.878 3.859 2.189 5.213l-.002-.002c1.411 1.271 3.247 2.095 5.271 2.235l.028.002v5.036c-1.912-.048-3.71-.489-5.331-1.247l.082.034c-.784-.377-1.447-.764-2.077-1.196l.052.034c-.012 3.649.012 7.298-.025 10.934-.103 1.853-.719 3.543-1.707 4.954l.02-.031c-1.652 2.366-4.328 3.919-7.371 4.011h-.014a9.6 9.6 0 0 1-.414.009 8.97 8.97 0 0 1-4.725-1.319l.04.023c-2.508-1.509-4.238-4.091-4.558-7.094l-.004-.041a23.64 23.64 0 0 1-.012-1.862c.49-4.779 4.494-8.476 9.361-8.476.547 0 1.083.047 1.604.136l-.056-.008c.025 1.849-.05 3.699-.05 5.548a4.23 4.23 0 0 0-1.42-.242 4.29 4.29 0 0 0-4.045 2.861l-.009.03a4.9 4.9 0 0 0-.21 1.426c0 .206.013.41.037.61l-.002-.024a4.25 4.25 0 0 0 4.201 3.59c.061 0 .121-.001.181-.004h-.009a4.17 4.17 0 0 0 3.451-1.994l.01-.018a2.77 2.77 0 0 0 .511-1.311l.001-.014c.125-2.237.075-4.461.087-6.698.012-5.036-.012-10.06.025-15.083z" />
</svg>
