<svg xmlns="http://www.w3.org/2000/svg" viewBox="0 0 32 32">
	<title>youtube</title>
	<path fill="currentColor" d="M12.932 20.459v-8.917l7.839 4.459zM30.368 8.735c-.354-1.301-1.354-2.307-2.625-2.663l-.027-.006a89.1 89.1 0 0 0-10.634-.638c-.381 0-.761.002-1.14.007l.058-.001a89.08 89.08 0 0 0-1.082-.007c-3.748 0-7.443.232-11.07.681l.434-.044c-1.297.363-2.297 1.368-2.644 2.643l-.006.026a38.8 38.8 0 0 0-.628 7.016l.001.263v-.014a38.78 38.78 0 0 0 .001.25c0 2.48.229 4.906.666 7.259l-.038-.244c.354 1.301 1.354 2.307 2.625 2.663l.027.006c3.193.406 6.886.638 10.634.638.38 0 .76-.002 1.14-.007l-.058.001c.322.004.702.007 1.082.007 3.749 0 7.443-.232 11.07-.681l-.434.044c1.298-.362 2.298-1.368 2.646-2.643l.006-.026c.399-2.109.627-4.536.627-7.015 0-.088 0-.176-.001-.263v.013c0-.074.001-.162.001-.25 0-2.48-.229-4.906-.666-7.259z" />
</svg>
